<svg xmlns="http://www.w3.org/2000/svg" width="28" height="24" fill="none"><path fill="#FC0" d="M22.47 3h-8.94A4.53 4.53 0 009 7.53v8.94c0 2.5 2.03 4.53 4.53 4.53h8.94c2.5 0 4.53-2.03 4.53-4.53V7.53C27 5.03 24.97 3 22.47 3z"/><path fill="#FF7B00" d="M17.97 3H9.03A4.53 4.53 0 004.5 7.53v8.94c0 2.5 2.03 4.53 4.53 4.53h8.94c2.5 0 4.53-2.03 4.53-4.53V7.53c0-2.5-2.03-4.53-4.53-4.53z"/><path fill="#4233FF" d="M13.47 3H4.53A4.53 4.53 0 000 7.53v8.94C0 18.97 2.03 21 4.53 21h8.94c2.5 0 4.53-2.03 4.53-4.53V7.53C18 5.03 15.97 3 13.47 3z"/><path fill="#fff" d="M10.13 17.63V6.37c0-.2-.17-.37-.38-.37h-1.5c-.2 0-.38.17-.38.37v11.26c0 .2.17.37.38.37h1.5c.2 0 .38-.17.38-.37z"/><path fill="#fff" d="M3.37 13.13h11.26c.2 0 .37-.17.37-.38v-1.5c0-.2-.17-.38-.37-.38H3.37c-.2 0-.37.17-.37.38v1.5c0 .2.17.38.37.38z"/></svg>
