<?xml version="1.0" encoding="iso-8859-1"?>
<!-- Uploaded to: SVG Repo, www.svgrepo.com, Generator: SVG Repo Mixer Tools -->
<svg fill="#ffffff" height="800px" width="800px" version="1.1" id="Layer_1" xmlns="http://www.w3.org/2000/svg" xmlns:xlink="http://www.w3.org/1999/xlink" 
	 viewBox="0 0 502 502" xml:space="preserve">
<g>
	<g>
		<g>
			<path d="M496.862,5.157C495.1,1.975,491.75,0,488.113,0h-45.35c-3.429,0-6.618,1.756-8.451,4.654l-253.604,400.9H61.828
				c-31.949,0-57.941,25.992-57.941,57.941V492c0,5.523,4.477,10,10,10h172.328c3.444,0,6.646-1.772,8.475-4.692l301.898-482
				C498.519,12.226,498.624,8.338,496.862,5.157z M51.828,482H23.887v-18.505c0-17.46,11.857-32.204,27.941-36.604V482z
				 M150.301,482h-26.755l26.755-26.755V482z M95.26,482h-22.8l20.962-20.411c3.957-3.853,4.042-10.184,0.188-14.141
				c-3.852-3.957-10.183-4.042-14.141-0.188l-7.642,7.441v-29.148H150.3v1.406h0.001L95.26,482z M180.678,482h-10.377v-56.446
				h15.914c3.429,0,6.618-1.756,8.451-4.654L448.27,20h21.779L180.678,482z"/>
			<path d="M403.892,440.538H295.053c-5.522,0-10,4.477-10,10V492c0,5.523,4.478,10,10,10h108.839c5.522,0,10-4.477,10-10v-41.462
				C413.892,445.015,409.415,440.538,403.892,440.538z M393.892,482h-88.839v-21.462h88.839V482z"/>
		</g>
	</g>
</g>
</svg>