<svg width="93" height="26" fill="none" xmlns="http://www.w3.org/2000/svg"><mask id="prefix__a" mask-type="alpha" maskUnits="userSpaceOnUse" x="0" y="1" width="25" height="24"><circle cx="12.996" cy="13" r="11.999" fill="#fff"/></mask><g mask="url(#prefix__a)"><path transform="translate(.997 1.001)" fill="url(#prefix__b)" d="M0 0h23.997v23.997H0z"/><path fill-rule="evenodd" clip-rule="evenodd" d="M11.064 1.019C9.576 2.24 8.992 4.518 9.746 6.699c.939 2.718 3.557 4.25 5.928 3.46 2.372-.791 3.508-3.657 2.57-6.374-.403-1.165-1.114-2.12-1.982-2.766h-5.198z" fill="#FC4714"/><path d="M24.975 24.998c-9.55-.35-20.755-8.89-23.978-14.177V6.605c12.835 9.148 19.205 8.764 22.547-5.572h1.45l-.02 23.966z" fill="#FC4714"/><path d="M24.975 24.998c-9.55-.35-20.755-8.89-23.978-14.177V6.605c12.835 9.148 19.205 8.764 22.547-5.572h1.45l-.02 23.966z" fill="#FC4714"/><path d="M24.975 24.998c-9.55-.35-20.755-8.89-23.978-14.177V6.605c12.835 9.148 19.205 8.764 22.547-5.572h1.45l-.02 23.966z" fill="#FC4714"/></g><path d="M37.95 22.26c1.95 0 3.275-.702 4.081-1.248v-2.521c-1.04.753-2.184 1.325-3.847 1.325-2.86 0-4.212-2.313-4.212-6.837 0-4.653 1.3-6.863 4.367-6.863 1.43 0 2.756.624 3.692 1.222V4.816c-.832-.598-2.184-1.144-3.847-1.144-4.81 0-7.41 3.536-7.41 9.307 0 5.928 2.704 9.281 7.176 9.281zM43.988 8.924V22h3.094V11.367h4.003V22h3.094V8.924h-10.19zM62.035 8.664c-3.406 0-5.771 2.418-5.771 6.811 0 4.367 2.365 6.785 5.77 6.785 3.407 0 5.772-2.418 5.772-6.811 0-4.367-2.365-6.785-5.771-6.785zm0 11.152c-1.716 0-2.574-1.325-2.574-4.341 0-3.042.858-4.367 2.574-4.367 1.716 0 2.574 1.325 2.574 4.341 0 3.042-.858 4.367-2.574 4.367zM72.743 8.924h-2.86V25.77h3.094v-5.304c.78 1.17 1.924 1.794 3.25 1.794 3.015 0 5.095-2.418 5.095-6.811 0-4.367-2.028-6.785-4.94-6.785-1.455 0-2.651.676-3.483 1.95l-.156-1.69zm2.704 10.892c-1.638 0-2.47-1.325-2.47-4.341 0-3.042.884-4.367 2.626-4.367 1.69 0 2.522 1.325 2.522 4.341 0 3.042-.884 4.367-2.678 4.367zM92.195 11.367V8.924H81.823v2.443h3.64V22h3.093V11.367h3.64z" fill="#000"/><defs><linearGradient id="prefix__b" x1="0" y1="0" x2="15.498" y2="21.247" gradientUnits="userSpaceOnUse"><stop stop-color="#FEE57E"/><stop offset="1" stop-color="#FED42B"/></linearGradient></defs></svg>
